<?xml version="1.0" encoding="UTF-8" standalone="no"?>
<!DOCTYPE svg PUBLIC "-//W3C//DTD SVG 1.1//EN" "http://www.w3.org/Graphics/SVG/1.1/DTD/svg11.dtd">
<svg width="100%" height="100%" viewBox="0 0 512 512" version="1.1" xmlns="http://www.w3.org/2000/svg" xmlns:xlink="http://www.w3.org/1999/xlink" xml:space="preserve" xmlns:serif="http://www.serif.com/" style="fill-rule:evenodd;clip-rule:evenodd;stroke-linejoin:round;stroke-miterlimit:2;">
    <g transform="matrix(1,0,0,1,-1644.51,-1.13687e-13)">
        <g transform="matrix(0.5,0,0,0.666667,1107.51,1.13687e-13)">
            <g transform="matrix(2,0,0,1.5,-1110.66,-1.7053e-13)">
                <path d="M1588.33,0C1597.17,0 1604.33,7.163 1604.33,16L1604.33,496C1604.33,504.837 1597.17,512 1588.33,512L1108.33,512C1099.5,512 1092.33,504.837 1092.33,496L1092.33,16C1092.33,7.163 1099.5,0 1108.33,0L1588.33,0Z" style="fill:rgb(242,242,242);"/>
            </g>
        </g>
        <g transform="matrix(0.5,0,0,0.666667,1107.51,1.13687e-13)">
            <g transform="matrix(7.406,0,0,5.5545,792.342,-1268.09)">
                <g>
                    <g transform="matrix(1,0,0,1,-122.855,0)">
                        <path d="M286.367,284.168C285.967,304.735 275.878,313.181 271.763,316.848C267.647,320.515 259.036,326.819 245.817,326.819C242.095,326.819 238.707,326.345 235.671,325.598C237.94,324.425 240.052,323.089 241.984,321.626C243.213,321.751 244.491,321.819 245.817,321.819C257.343,321.819 264.848,316.312 268.436,313.115C271.731,310.179 279.304,303.78 281.026,289.168L209.632,289.168C209.835,292.046 210.434,295.869 212.04,299.404C215.237,306.443 219.105,311.257 222.6,313.865C223.363,314.434 224.333,315.129 225.505,315.869C223.473,316.582 221.315,317.119 219.058,317.448C215.218,314.399 210.961,309.121 207.487,301.471C203.845,293.454 204.617,284.168 204.617,284.168L286.367,284.168Z"/>
                    </g>
                    <g transform="matrix(1,0,0,1,-122.951,0)">
                        <path d="M224.358,325.577C221.058,326.378 217.552,326.819 213.897,326.819C201.984,326.819 192.118,321.387 184.713,313.432C177.309,305.477 173.989,297.319 173.824,287.069C173.659,276.82 173.91,268.047 173.91,268.047L256.175,268.047C256.175,268.047 256.231,269.693 256.098,279.63C256.095,279.811 256.093,279.991 256.09,280.168L251.09,280.168C251.093,279.969 251.096,279.767 251.098,279.563C251.136,276.776 251.158,274.655 251.171,273.047L178.814,273.047C178.767,276.528 178.735,281.548 178.823,286.989C178.967,295.95 181.899,303.071 188.373,310.026C194.857,316.992 203.465,321.819 213.897,321.819C215.272,321.819 216.623,321.749 217.947,321.614C219.914,321.414 221.821,321.07 223.654,320.602C225.903,320.026 228.04,319.262 230.04,318.342C231.63,317.61 233.134,316.78 234.539,315.867C236.341,314.697 237.981,313.391 239.432,311.985C245.152,306.444 248.101,301.573 250.248,293.168L255.398,293.168C252.961,303.411 249.622,309.075 242.911,315.576C242.248,316.219 241.549,316.844 240.819,317.449C239.447,318.583 237.962,319.645 236.374,320.617C234.406,321.821 232.282,322.887 230.025,323.78C228.217,324.495 226.324,325.1 224.358,325.577Z"/>
                    </g>
                </g>
            </g>
        </g>
    </g>
</svg>
