<?xml version="1.0" encoding="UTF-8" standalone="no"?>
<!DOCTYPE svg PUBLIC "-//W3C//DTD SVG 1.1//EN" "http://www.w3.org/Graphics/SVG/1.1/DTD/svg11.dtd">
<svg width="100%" height="100%" viewBox="0 0 422 220" version="1.1" xmlns="http://www.w3.org/2000/svg" xmlns:xlink="http://www.w3.org/1999/xlink" xml:space="preserve" xmlns:serif="http://www.serif.com/" style="fill-rule:evenodd;clip-rule:evenodd;stroke-linejoin:round;stroke-miterlimit:2;">
    <g transform="matrix(1,0,0,1,-46.022,-51.5746)">
        <g transform="matrix(1.95928,0,0,1.95928,-44.1481,-49.4747)">
            <g transform="matrix(0.438028,0,0,0.438028,-65.4627,-74.9195)">
                <path d="M254.515,297.657L254.515,365.614C254.515,464.55 335.005,545.039 433.941,545.039C521.706,545.039 594.906,481.682 610.328,398.314L590.604,398.314C575.466,470.924 510.979,525.644 433.941,525.644C345.7,525.644 273.91,453.854 273.91,365.614L273.91,308.175L593.974,308.175L593.974,340.137L613.369,340.137L613.369,288.781L254.515,288.781" style="fill:rgb(35,31,32);fill-rule:nonzero;"/>
            </g>
            <g transform="matrix(0.438028,0,0,0.438028,-65.4627,-74.9195)">
                <path d="M745.427,359.535L387.57,359.535L387.57,366.078C387.57,386.38 390.625,406.643 397.45,425.763C408.615,457.04 428.235,484.335 453.536,504.898C462.118,503.686 470.386,501.723 478.337,499.08C438.554,472.727 411.159,429.065 407.037,378.93L725.96,378.93C719.172,460.945 650.248,525.651 566.487,525.651C561.881,525.651 557.322,525.384 552.789,524.996C544.183,531.47 535.6,536.706 527.915,540.827C540.328,543.567 553.25,545.046 566.487,545.046C647.165,545.046 715.585,491.504 738.071,418.097C743.181,401.415 745.38,383.974 745.398,366.526C745.402,363.568 745.41,360.982 745.427,359.981L745.427,359.535Z" style="fill:rgb(35,31,32);fill-rule:nonzero;"/>
            </g>
        </g>
    </g>
</svg>
