<?xml version="1.0" encoding="UTF-8" standalone="no"?>
<!DOCTYPE svg PUBLIC "-//W3C//DTD SVG 1.1//EN" "http://www.w3.org/Graphics/SVG/1.1/DTD/svg11.dtd">
<svg width="100%" height="100%" viewBox="0 0 512 512" version="1.1" xmlns="http://www.w3.org/2000/svg" xmlns:xlink="http://www.w3.org/1999/xlink" xml:space="preserve" xmlns:serif="http://www.serif.com/" style="fill-rule:evenodd;clip-rule:evenodd;stroke-linejoin:round;stroke-miterlimit:2;">
    <g transform="matrix(1,0,0,1,-1092.33,-1.13687e-13)">
        <g id="Favicon" transform="matrix(0.5,0,0,0.666667,555.332,1.13687e-13)">
            <rect x="1074" y="0" width="1024" height="768" style="fill:none;"/>
            <clipPath id="_clip1">
                <rect x="1074" y="0" width="1024" height="768"/>
            </clipPath>
            <g clip-path="url(#_clip1)">
                <g transform="matrix(2,0,0,1.5,-1110.66,-1.7053e-13)">
                    <path d="M1588.33,0C1597.17,0 1604.33,7.163 1604.33,16L1604.33,496C1604.33,504.837 1597.17,512 1588.33,512L1108.33,512C1099.5,512 1092.33,504.837 1092.33,496L1092.33,16C1092.33,7.163 1099.5,0 1108.33,0L1588.33,0Z" style="fill:rgb(242,242,242);"/>
                </g>
                <g transform="matrix(6.36562,0,0,4.77421,33.0259,-714.506)">
                    <path d="M243.963,287.547C232.719,287.547 217.693,280.394 209.997,274.549C202.301,268.704 195.174,261.786 190.984,254.846C185.589,245.911 182.506,239.732 180.265,229.781C177.534,217.654 178.463,210.255 178.463,210.255C178.463,210.255 189.13,209.786 201.264,212.923C210.743,215.374 220.46,220.986 220.841,221.207L220.846,221.165L220.86,221.173C222.86,211.197 227.379,199.334 232.41,192.092C237.447,184.84 243.963,178.719 243.963,178.719C243.963,178.719 250.478,184.84 255.516,192.092C260.552,199.342 265.075,211.223 267.072,221.205L267.143,221.165L267.144,221.173C268.048,220.653 277.467,215.3 286.661,212.923C298.796,209.786 309.463,210.255 309.463,210.255C309.463,210.255 310.391,217.654 307.66,229.781C305.419,239.732 302.336,245.911 296.941,254.846C292.752,261.786 285.625,268.704 277.929,274.549C270.247,280.383 255.263,287.52 244.026,287.547L243.963,287.547ZM240.783,259.228C239.103,263.044 237.461,267.689 237.461,271.362C237.461,273.571 238.211,275.572 239.203,277.254C240.915,280.25 243.357,282.379 243.929,282.865C243.949,282.92 243.971,282.94 243.994,282.92C244.018,282.94 244.04,282.92 244.06,282.865C244.632,282.379 247.074,280.25 248.786,277.254C249.778,275.572 250.528,273.571 250.528,271.362C250.528,267.689 248.886,263.044 247.206,259.228C245.591,255.46 243.994,252.586 243.994,252.586C243.994,252.586 242.398,255.46 240.783,259.228ZM224.582,229.805C224.582,229.805 222.905,250.782 232.789,267.533C232.812,267.573 232.857,267.595 232.903,267.589C232.949,267.584 232.987,267.552 233.001,267.509C233.539,265.85 236.673,256.293 238.894,251.878C239.443,250.786 240.417,249.503 240.417,248.281C240.417,246.375 239.948,245.749 236.848,241.846C233.493,237.621 226.868,230.838 224.582,229.805ZM220.318,226.692L218.331,225.532C218.331,225.532 209.058,220.102 200.013,217.764C193.435,216.063 187.319,215.489 183.338,215.308C183.438,218.383 183.853,222.953 185.143,228.683C187.253,238.049 190.186,243.851 195.265,252.262C199.167,258.725 205.852,265.123 213.021,270.567C218.402,274.654 227.682,279.512 236.341,281.56C236.121,281.307 235.9,281.044 235.678,280.771C227.514,270.732 222.779,257.34 220.755,246.547C219.6,240.386 219.914,232.096 220.318,226.692ZM251.664,281.541C260.301,279.482 269.541,274.641 274.905,270.567C282.073,265.123 288.759,258.725 292.661,252.262C297.739,243.851 300.673,238.049 302.782,228.683C304.073,222.953 304.488,218.383 304.588,215.308C300.607,215.489 294.49,216.063 287.913,217.764C278.867,220.102 269.595,225.532 269.595,225.532L267.668,226.657C268.074,232.059 268.391,240.373 267.234,246.547C265.21,257.34 260.475,270.732 252.311,280.771C252.094,281.037 251.879,281.294 251.664,281.541ZM262.59,224.296L262.17,222.194C260.304,212.858 256.12,201.726 251.41,194.945C248.952,191.407 246.12,188.155 243.963,185.844C241.806,188.155 238.974,191.407 236.516,194.945C231.805,201.726 227.621,212.858 225.755,222.194L225.344,224.254C228.329,226.505 231.85,229.408 234.309,231.647C238.095,235.094 243.532,242.614 243.994,243.257C244.457,242.614 249.894,235.094 253.68,231.647C256.124,229.422 259.617,226.541 262.59,224.296ZM263.343,229.805C261.058,230.838 254.433,237.621 251.077,241.846C247.978,245.749 247.508,246.375 247.508,248.281C247.508,249.503 248.482,250.786 249.031,251.878C251.252,256.293 254.386,265.85 254.924,267.509C254.938,267.552 254.977,267.584 255.023,267.589C255.069,267.595 255.113,267.573 255.137,267.533C265.02,250.782 263.343,229.805 263.343,229.805Z"/>
                </g>
            </g>
        </g>
    </g>
</svg>
