<?xml version="1.0" encoding="UTF-8" standalone="no"?>
<!DOCTYPE svg PUBLIC "-//W3C//DTD SVG 1.1//EN" "http://www.w3.org/Graphics/SVG/1.1/DTD/svg11.dtd">
<svg width="100%" height="100%" viewBox="0 0 265 220" version="1.1" xmlns="http://www.w3.org/2000/svg" xmlns:xlink="http://www.w3.org/1999/xlink" xml:space="preserve" xmlns:serif="http://www.serif.com/" style="fill-rule:evenodd;clip-rule:evenodd;stroke-linejoin:round;stroke-miterlimit:2;">
    <g transform="matrix(1,0,0,1,-653.255,-51.5746)">
        <g transform="matrix(0.553109,0,0,0.553109,598.114,51.0791)">
            <path d="M375.474,375.301C372.298,376.302 369.078,377.172 365.859,377.998C371.645,370.863 377.083,363.467 382.173,355.767L383.609,353.548L383.609,353.505C416.362,302.692 431.475,242.183 426.624,181.676C426.325,177.95 428.03,174.311 431.206,172.34C470.194,148.139 514.64,134.883 560.763,133.716C557.804,244.959 482.497,343.673 375.474,375.301ZM338.972,382.262C334.181,377.239 329.606,372.031 325.255,366.659C316.335,355.647 313.284,341.001 316.847,327.284C321.957,307.606 329.352,288.697 338.973,270.748C348.601,288.711 355.99,307.627 361.084,327.303C364.626,340.985 361.585,355.587 352.712,366.589C348.34,372.011 343.755,377.246 338.972,382.262ZM302.428,375.345C195.536,343.673 120.141,244.872 117.183,133.716C163.34,134.884 207.819,148.159 246.828,172.395C249.948,174.333 251.623,177.91 251.326,181.571C246.34,242.903 261.932,304.355 295.728,355.724C300.775,363.381 306.257,370.863 312.086,378.042C308.824,377.215 305.604,376.302 302.428,375.345ZM298.954,327.141L298.952,327.141C275.864,284.534 265.232,235.999 268.363,187.377C289.482,203.694 308.125,223.357 323.294,245.212C326.581,249.947 327.145,256.13 324.393,261.195C313.067,282.039 304.551,304.105 298.954,327.141ZM338.971,25.629C376.364,64.951 399.918,113.718 407.498,167.33C380.824,186.342 357.376,210.206 338.973,237.193C320.564,210.2 297.115,186.339 270.448,167.329C278.009,113.705 301.564,64.931 338.971,25.629ZM378.97,327.147L378.969,327.147C373.393,304.121 364.885,282.054 353.555,261.199C350.801,256.131 351.366,249.944 354.655,245.206C369.83,223.342 388.487,203.665 409.627,187.342C412.668,236.034 402.043,284.595 378.97,327.147ZM567.506,116.227C516.3,116.227 466.791,130.192 423.503,156.643C423.489,156.652 423.475,156.662 423.46,156.672C413.771,100.188 387.273,49.079 346.263,8.191L338.979,0.896L331.387,8.487C290.523,49.311 264.129,100.314 254.483,156.67C254.469,156.662 254.456,156.652 254.442,156.643C211.154,130.192 161.645,116.227 110.439,116.227L99.693,116.227L99.693,127.408C99.91,248.788 181.222,357.594 297.469,392.051C305.952,394.574 320.724,398.524 338.973,398.524C357.221,398.524 372.08,394.53 380.477,392.007C497.071,357.507 578.426,248.353 578.252,126.538L578.252,116.227L567.506,116.227Z" style="fill:rgb(3,4,4);fill-rule:nonzero;"/>
        </g>
    </g>
</svg>
